<svg xmlns="http://www.w3.org/2000/svg" width="64" height="64" viewBox="0 0 1024 1024"><defs><clipPath id="r"><rect width="1024" height="1024" rx="230"/></clipPath></defs><g clip-path="url(#r)"><defs><radialGradient id="ib" cx="50%" cy="38%" r="75%"><stop offset="0" stop-color="#18264A"/><stop offset=".55" stop-color="#0F1730"/><stop offset="1" stop-color="#0A1020"/></radialGradient><radialGradient id="ig" cx="56%" cy="56%" r="40%"><stop offset="0" stop-color="#8FD4B6" stop-opacity=".22"/><stop offset="1" stop-color="#8FD4B6" stop-opacity="0"/></radialGradient></defs><rect width="1024" height="1024" fill="url(#ib)"/><rect width="1024" height="1024" fill="url(#ig)"/><defs><linearGradient id="ifg" x1="0" y1="0" x2="1" y2="1"><stop offset="0" stop-color="#FFFFFF" stop-opacity=".2"/><stop offset=".55" stop-color="#FFFFFF" stop-opacity=".07"/><stop offset="1" stop-color="#FFFFFF" stop-opacity=".11"/></linearGradient><linearGradient id="ie" x1="0" y1="0" x2="0" y2="1"><stop offset="0" stop-color="#FFFFFF" stop-opacity=".5"/><stop offset="1" stop-color="#FFFFFF" stop-opacity=".12"/></linearGradient><filter id="il" x="-20%" y="-40%" width="140%" height="180%"><feGaussianBlur stdDeviation="14"/></filter></defs><rect x="232" y="232" width="560" height="560" rx="132" fill="url(#ifg)" stroke="url(#ie)" stroke-width="5"/><path d="M300.0 606.0 L314.1 602.9 L328.3 599.5 L342.4 600.1 L356.5 596.1 L370.7 596.8 L384.8 589.0 L398.9 585.4 L413.1 574.2 L427.2 569.0 L441.3 560.0 L455.5 556.4 L469.6 552.2 L483.7 547.6 L497.9 542.8 L512.0 534.7 L526.1 532.3 L540.3 525.5 L554.4 524.5 L568.5 516.6 L582.7 517.1 L596.8 509.3 L610.9 503.9 L625.1 496.3 L639.2 490.8 L653.3 485.4 L667.5 481.7 L681.6 477.2 L695.7 469.1 L709.9 465.7 L724.0 456.0" fill="none" stroke="#8FD4B6" stroke-width="30" stroke-opacity=".45" filter="url(#il)"/><path d="M300.0 606.0 L314.1 602.9 L328.3 599.5 L342.4 600.1 L356.5 596.1 L370.7 596.8 L384.8 589.0 L398.9 585.4 L413.1 574.2 L427.2 569.0 L441.3 560.0 L455.5 556.4 L469.6 552.2 L483.7 547.6 L497.9 542.8 L512.0 534.7 L526.1 532.3 L540.3 525.5 L554.4 524.5 L568.5 516.6 L582.7 517.1 L596.8 509.3 L610.9 503.9 L625.1 496.3 L639.2 490.8 L653.3 485.4 L667.5 481.7 L681.6 477.2 L695.7 469.1 L709.9 465.7 L724.0 456.0" fill="none" stroke="#8FD4B6" stroke-width="22" stroke-linecap="round" stroke-linejoin="round"/><circle cx="724.0" cy="456.0" r="22" fill="#DCE1E8"/></g></svg>