<svg xmlns="http://www.w3.org/2000/svg" viewBox="0 0 442 160"><title>Cuvée, wersja pozioma</title><path fill="#15110e" fill-rule="evenodd" d="M10 150V64a54 54 0 0 1 108 0v86Zm2.08-2.08V64a51.92 51.92 0 0 1 103.84 0v83.92Zm4.32-4.32V64a47.6 47.6 0 0 1 95.2 0v79.6Zm.94-.94V64a46.66 46.66 0 0 1 93.32 0v78.66Z"/><path fill="#15110e" d="M65.36 112.8a34 34 0 0 1-9.84-1.36c-16.16-5.04-20.24-23.12-19.84-38.08.16-8.24 1.68-16.88 6.32-23.84 6.32-9.6 16.64-12.56 27.6-11.76 4.88.32 10.16 1.6 13.68 5.12 4.16 4.08 4.48 12.16-2.96 12.16 0-4-.4-8.64-2.96-11.92-4.64-6.08-17.12-5.2-22.8-1.44-7.12 4.64-9.68 13.76-10.72 21.76a85 85 0 0 0 .56 27.04c.96 5.12 2.64 10.4 6.08 14.48 1.6 2 3.6 3.68 6 4.8 5.84 2.88 15.12 2.96 20.56-1.04 3.36-2.48 5.36-6.32 6.4-10.24 4.56 1.2 1.36 6.72-.72 8.64-4.64 4.32-11.28 5.68-17.36 5.68"/><path fill="#b08d57" d="M50.4 128h27.2v1.28H50.4z"/><path fill="#15110e" d="M179.7 97.7c-5.7 0-11.3-1.7-15.3-6-7.8-8.2-8.2-25.3-3.1-34.9 1.6-2.9 3.7-5.3 6.4-7.1 6.1-4 18.7-5.1 24.6 0 4.6 4 2.3 9.4-3.8 9.4 0-3.1-.1-6.7-2.1-9.3-3-4-10.5-3.2-14.1-.5-4 3.1-5.3 8.4-5.9 13.1-1.2 8.1-1.3 22.6 3.7 29.6 3.7 5.3 12.5 6.8 17.8 2.8 2.5-1.9 3.9-5 4.7-8 3.1 1.2 1.4 5.1-.3 6.8-3.3 3.2-8.2 4.1-12.6 4.1m56.2 0c-7.2 0-14.6-2-16.8-9.7-.6-2-.8-4.1-.8-6.1V52.5c0-3.6-2.6-4.8-5.8-4.8h-.9V47H232v.7h-.9c-3.3 0-5.8 1.4-5.8 5v29.6c0 4.2.6 9.1 4 12 2.2 1.9 5.4 2.4 8.2 2.3 8.6-.1 14.9-5.1 14.9-14V52.5c0-3.6-2.6-4.8-5.8-4.8h-.9V47h14v.7h-.9c-3.4 0-5.7 1.4-5.7 5.1v29.9c0 10.3-7.6 15-17.2 15m43.5-46.2c-.8-2.6-2.1-3.8-5-3.8h-.9V47h19.3v.7h-1.7c-4.9 0-4.8 2-3.7 6l8.7 25c1.5 4 2.7 8 3.8 12.1 1.2-4 2.5-8.1 3.8-12.1l8-24.5c1.5-4.2 1.1-6.5-3.9-6.5h-4.1V47h17.1v.7h-2.6c-3.2 0-4.3 2.8-5.2 5.4L298.5 97h-3zM335.9 97v-.7h.9c3.3 0 5.7-1.4 5.7-5V52.5c0-3.6-2.5-4.8-5.7-4.8h-.9V47h35.2l.4 12.3h-.7l-.1-2.3c-.5-6.9-2.9-9.3-9.9-9.3h-11.2v22.8h17.6v.7h-17.6v25.1h12.9c7 0 10.1-1.9 10.5-9.2l.2-2.4h.7l-.5 12.3zm16.8-54.7c2.2-3.4 4.3-6.8 5.9-10.5h6.3v.7c-3 3.5-7.8 7.7-11.5 10.5h-.7zM393.8 97v-.7h.9c3.3 0 5.7-1.4 5.7-5V52.5c0-3.6-2.5-4.8-5.7-4.8h-.9V47H429l.4 12.3h-.7l-.1-2.3c-.5-6.9-3-9.3-9.9-9.3h-11.2v22.8h17.6v.7h-17.6v25.1h12.9c7 0 10.1-1.9 10.5-9.2l.2-2.4h.7l-.5 12.3z"/><path fill="#b08d57" d="M158 114.99h273.77v1.6H158z"/><path fill="#15110e" d="M158 139v-.1h.3c.6 0 .8-.3.8-.8v-6.3c0-.5-.3-.7-.8-.7h-.3v-.1h3.7v.1h-.3c-.5 0-.8.3-.8.8v2.8h3.4v-2.8c0-.5-.2-.8-.7-.8h-.3v-.1h3.7v.1h-.4c-.5 0-.7.3-.7.8v6.3c0 .4.2.7.7.7h.4v.1H163v-.1h.3c.5 0 .7-.3.7-.8v-3.2h-3.4v3.2c0 .5.3.8.8.8h.3v.1zm25.6.1c-5.1 0-5.2-8.2 0-8.2 5 0 5 8.2 0 8.2m0-.1c2.7 0 2.6-5.7 1.5-7.3-.4-.5-1-.7-1.5-.7-3.1 0-3.1 8 0 8m18.2 0v-.1h.4c.5 0 .7-.3.7-.8v-7h-.6c-1.2 0-1.9.5-1.9 1.8v.2h-.2l.1-2.1h6.8l.1 2.1h-.1v-.2c-.1-1.3-.8-1.8-2-1.8h-.6v7c0 .5.2.8.7.8h.4v.1zm18 0v-.1h.4c.5 0 .7-.3.7-.7v-6.3c0-.5-.2-.8-.7-.8h-.4v-.1h6.2l.1 2.1h-.2v-.4c-.1-1.1-.7-1.6-1.8-1.6h-1.6v3.6h2.7v.2h-2.7v4h2c1.1 0 1.7-.5 1.8-1.6v-.4h.2l-.1 2.1zm19.6 0v-.1h.3c.5 0 .7-.3.7-.8v-6.2c0-.5-.2-.8-.7-.8h-.3v-.1h3.7v.1h-.4c-.5 0-.7.2-.7.7v7.1h1.7c1.3 0 2-.7 2.1-2v-.4h.1l-.1 2.5zm35.7-4c-1.1 0-1.1-2 0-2 1.2 0 1.1 2 0 2m29.7-3.2c-.1-.5-.3-.7-.7-.7h-.2v-.1h3.6v.1h-.3c-.8 0-.9.5-.7 1.1l1.1 3.6c.2.8.4 1.5.6 2.2l.3-1.2 1.4-5.7h.8l1.5 4.4c.3.8.6 1.6.8 2.4.2-.8.4-1.5.7-2.3l.8-3.3c.2-.6.2-1.2-.7-1.2h-.6v-.1h2.8v.1h-.3c-.6 0-.8.5-1 1l-1.8 6.9h-1l-2.2-6.5-1.6 6.5H307zm23.9 7.2v-.1h.3c.5 0 .8-.3.8-.8v-6.2c0-.5-.3-.8-.8-.8h-.3v-.1h3.7v.1h-.4c-.5 0-.7.3-.7.8v6.2c0 .5.2.8.7.8h.4v.1zm16.5 0v-.1h.6c.5 0 .7-.3.7-.8v-6.3c0-.5-.2-.7-.7-.7h-.6v-.1h2.8l4.2 6.2v-5.4c0-.5-.2-.7-.7-.7h-.8v-.1h3v.1h-.6c-.5 0-.7.3-.7.8v7.1h-.7l-5-7.3v6.4c0 .5.2.8.7.8h.8v.1zm21.2 0v-.1h.5c.5 0 .8-.3.8-.8v-6.3c0-.5-.3-.7-.8-.7h-.5v-.1h2.7l4.3 6.2v-5.4c0-.5-.3-.7-.8-.7h-.8v-.1h3v.1h-.5c-.5 0-.8.3-.8.8v7.1h-.7l-5-7.3v6.4c0 .5.3.8.8.8h.7v.1zm21.1 0v-.1h.4c.5 0 .7-.3.7-.8v-6.2c0-.5-.2-.8-.7-.8h-.4v-.1h3.7v.1h-.3c-.5 0-.7.3-.7.8v6.2c0 .5.2.8.7.8h.3v.1zm20.7.1c-4.2 0-5.2-5.9-2.1-7.7 1.1-.7 2.9-.8 4.1-.1 1.2.8.6 2-.7 2 0-1.2-.2-2.4-1.6-2.3-.5 0-.9.2-1.2.5-.8.9-.8 2.6-.7 3.7 0 1.1.1 2.5.9 3.3 1.4 1.2 3.3.3 3.6-1.3 1.2.3-.5 1.9-2.3 1.9m15-.1v-.1h.4c.6 0 .8-.4 1-.9l2.5-7h1l2.8 7.2c.1.3.3.7.7.7h.2v.1h-3.6v-.1h.4c.7 0 .8-.4.6-1l-.7-1.8h-3.1l-.6 1.7c-.2.6-.2 1.1.7 1.1h.6v.1zm2.3-3.1h3l-.8-2c-.2-.8-.5-1.5-.7-2.3-.3.7-.5 1.3-.7 2z"/></svg>