<svg xmlns="http://www.w3.org/2000/svg" viewBox="0 0 300 150"><path fill="none" stroke="#0e0e12" stroke-width="3" d="M0 130h300M0 124v12m300-12v12"/><path fill="none" stroke="#ff3d1f" stroke-linecap="round" stroke-width="5" d="m0 130 5-27.5 5-14.2 5-11 5-9.2 5-7.9 5-6.8 5-6 5-5.2 5-4.5 5-4 5-3.4 5-2.9 5-2.5 5-2 5-1.7 5-1.3 5-.9 5-.6 5-.3 5-.1 5 .3 5 .4 5 .8 5 .9 5 1.2 5 1.4 5 1.6 5 1.7 5 1.9 5 2.1 5 2.2 5 2.4 5 2.5 5 2.7 5 2.7 5 2.8 5 3 5 3 5 3.2 5 3.2 5 3.3 5 3.3 5 3.4 5 3.5 5 3.5 5 3.6 5 3.6 5 3.6 5 3.6 5 3.7 5 3.7 5 3.7 5 3.7 5 3.7 5 3.7 5 3.7 5 3.7 5 3.7 5 3.7 5 3.6"/><path fill="none" stroke="#ff3d1f" stroke-dasharray="3 4" stroke-width="1.6" d="M98.1 18v118"/><circle cx="98.1" cy="18" r="6.5" fill="#ff3d1f" stroke="#0e0e12" stroke-width="2"/><path fill="none" stroke="#00b3a4" stroke-linecap="round" stroke-width="5" d="m0 130 5-5.9 5-5.8 5-5.8 5-5.8 5-5.7 5-5.6 5-5.5 5-5.5 5-5.2 5-5.2 5-5 5-4.8 5-4.7 5-4.4 5-4.3 5-4 5-3.8 5-3.6 5-3.3 5-3.1 5-2.8 5-2.5 5-2.3 5-1.9 5-1.7 5-1.4 5-1 5-.8 5-.4 5-.2 5 .2 5 .4 5 .8 5 1 5 1.4 5 1.7 5 1.9 5 2.3 5 2.5 5 2.8 5 3.1 5 3.3 5 3.6 5 3.8 5 4 5 4.3 5 4.4 5 4.7 5 4.8 5 5 5 5.2 5 5.2 5 5.5 5 5.5 5 5.6 5 5.7 5 5.8 5 5.8 5 5.8 5 5.9"/><path fill="none" stroke="#00b3a4" stroke-dasharray="3 4" stroke-width="1.6" d="M150 18v118"/><circle cx="150" cy="18" r="6.5" fill="#00b3a4" stroke="#0e0e12" stroke-width="2"/><path fill="none" stroke="#ff2d95" stroke-linecap="round" stroke-width="5" d="m0 130 5-.4 5-.9 5-1.2 5-1.5 5-1.8 5-2.1 5-2.2 5-2.5 5-2.7 5-2.9 5-3.1 5-3.2 5-3.4 5-3.6 5-3.6 5-3.8 5-3.9 5-4 5-4 5-4.1 5-4.2 5-4.1 5-4.2 5-4.1 5-4.1 5-4 5-3.9 5-3.8 5-3.6 5-3.4 5-3.2 5-3 5-2.7 5-2.4 5-2 5-1.7 5-1.3 5-.9 5-.5 5 .1 5 .5 5 1.1 5 1.6 5 2.1 5 2.7 5 3.3 5 3.9 5 4.5 5 5 5 5.6 5 6.2 5 6.7 5 7.2 5 7.7 5 8.1 5 8.6 5 8.9 5 9.2 5 9.4 5 9.6"/><path fill="none" stroke="#ff2d95" stroke-dasharray="3 4" stroke-width="1.6" d="M197.1 18v118"/><circle cx="197.1" cy="18" r="6.5" fill="#ff2d95" stroke="#0e0e12" stroke-width="2"/></svg>
